<?xml version="1.0" encoding="utf-8"?>
<!-- Generator: Adobe Illustrator 19.0.0, SVG Export Plug-In . SVG Version: 6.00 Build 0)  -->
<!DOCTYPE svg PUBLIC "-//W3C//DTD SVG 1.1//EN" "http://www.w3.org/Graphics/SVG/1.1/DTD/svg11.dtd">
<svg version="1.1" id="レイヤー_1" xmlns="http://www.w3.org/2000/svg" xmlns:xlink="http://www.w3.org/1999/xlink" x="0px"
	 y="0px" viewBox="0 0 84.9 110.7" enable-background="new 0 0 84.9 110.7" xml:space="preserve">
<g>
	<g opacity="0.9">
		<g>
			<path id="XMLID_9_" fill="#EEDF77" d="M15.7,44.6c-1.3,0.3-2.9,1.5-3.5,2.8L10,51.7l-1.8,3.5c-0.3,0.7-1.5,1.6-2.4,1.8l-4.4,1.3
				c-0.9,0.2-1.4,0.8-1.5,1.6c0,0,0,0.1,0,0.1c0,0.6,0.4,1.2,1,1.5l1.2,0.4c0.3,0.1,0.7,0.2,1,0.4c-0.3,0.4-0.4,0.7-0.4,1
				c0,0.2,0,0.3,0.1,0.4c0.2,0.6,0.9,0.9,1.8,0.9c0,0,3.6,0.1,5.8-1.5c2.6-1.9,2.8-5.8,5.2-9.5c1.9-3,6.2-3.6,6.2-3.6l-0.2-0.7
				c-0.2-0.9-0.7-2.7-1.8-3.6C18.6,44.6,17.2,44.3,15.7,44.6"/>
			<path id="XMLID_8_" fill="#ADD1D7" d="M68.7,87l-1.4-6.4c-0.2-1-0.3-2.6-0.3-3.6c0,0,1.1-12.7,1.1-12.7c0-0.7-0.2-1.4-0.7-1.9
				c-0.5-0.5-1.2-0.7-1.9-0.7l-7.4,0.4c-0.8,0-1.7-0.5-1.9-1.2l-0.9-2.5c-0.5-1.2-1.8-2.5-3.2-2.7c-0.8-0.1-7.3,2.8-9.9,2.7
				c-5.7-0.2-8.1-4.6-8.9-5.1c-0.5-0.3-4.8-3-4.8-3c-1-0.6-2.8-1.1-4-1l-0.9,0c-1.2,0.1-2.9,0.5-4,1l-0.9,0.4
				c-1.1,0.5-2.4,1.8-3,2.8l-2.6,4.8c-0.6,1-1.1,2.7-1.3,3.9l-1.1,8.9c-0.1,1-0.1,2.5,0.3,3.2c0.2,0.4,0.5,1.3,0.6,1.8
				c0.1,0.7,0.6,2,1,3l1.8,4.1c0.4,0.9,0.9,2.2,1,2.9c0.1,0.7,0.5,2.1,0.8,3.1l0.3,1.1c0.3,1,0.4,2.1,0.3,2.4c-0.2,0.7-0.1,2,0,3
				c0.2,1.3,1.5,2.4,2.9,2.5l1.8,0.2c0.7,0.1,1.4-0.1,1.9-0.6c0.5-0.5,0.7-1.2,0.6-1.9c0,0-0.3-2.6-0.3-2.6
				c-0.1-1.1-0.4-2.6-0.5-3.3c-0.2-0.8-0.6-2.2-1.1-3.3L22,86.3c-0.4-1-1.1-2.3-1.4-2.9c-0.2-0.4-0.6-1.7-0.8-2.7l-0.5-3.1
				c-0.1-0.8,0.3-2,1-2.5l0.6-0.5c0.2-0.2,0.5-0.4,0.8-0.7c0,0.4,0.1,0.9,0.2,1.2l1,2.9c0.4,1.1,1.3,2.6,2.2,3.5l1.4,1.4
				c0.7,0.7,1.8,2,2.4,2.8c0.6,0.8,1.3,2.2,1.7,3c0.4,1.1,1.8,2.1,3.1,2.3l1.3,0.2c0.8,0.1,1.4-0.1,1.8-0.6c0.4-0.5,0.4-1.2,0-1.9
				l-1.6-3.1c-0.5-1-1.7-2.4-2.6-3.2L30,80.2c-0.6-0.4-0.7-1.3-0.4-2l0.7-1.2c0.3-0.5,0.4-1,0.4-1.6c0.7,0.2,1.3,0.4,1.9,0.4
				l4.2,0.4c0.7,0.1,1.5,0.8,1.6,1.5l1.5,8.7c0.2,1,0.1,2.6-0.1,3.5c-0.3,1.1-0.4,2.9-0.3,4l0,0.3c0.1,1,0.1,2.7-0.1,3.7l-1.2,9.3
				c-0.2,1.4,0.8,2.8,2.3,3l2.7,0.4c0.7,0.1,1.4-0.1,1.9-0.6c0.4-0.4,0.7-1,0.7-1.6c0-0.1,0-0.2,0-0.3l-0.3-2.7
				c-0.1-1.1-0.2-2.8-0.3-3.8L45.2,99c0-0.1,0-0.1,0-0.2c0-1,0.3-2.4,0.6-3.3l0.5-1.3c0.4-1,0.7-2.6,0.7-3.7c0-0.1,0-0.2,0-0.3
				l-0.1-1.4c0-0.4,0-1,0-1.5c0-0.8,0-1.7,0.1-2.3l0.3-4c0.1-1,0.5-2.5,1-3.4c0,0,0.4-0.7,0.4-0.7c0.4-0.8,1.5-2,2.3-2.5l0.1-0.1
				c0.6-0.4,1-0.6,1.2-0.6c0.3,0.2,0.8,0.4,1.1,0.5c0.7,0.1,2.2-0.4,2.9-0.7l0.1,0c0,0,5-3.2,5.1-3.2c0.3-0.1,0.4-0.1,0.4-0.1
				c0,0,0.1,0.1,0,0.4c0,0-1.2,7.7-1.2,7.7c-0.2,1.1,0.1,2.6,0.3,3.8c0.1,0.7,0.1,2-0.1,3.7l-0.1,0.4c-0.2,1.4,0.9,2.8,2.3,3
				l3.3,0.4c0.7,0.1,1.4-0.1,1.8-0.6C68.7,88.4,68.8,87.8,68.7,87z"/>
			<path fill="#D7251D" d="M54.8,10.3c-1.5-0.2-2.5,0.1-2.7,1l-1.3,5c-0.2,0.9-0.9,2.4-1.5,3.2l-1.2,1.7c-0.6,0.8-1.7,2.1-2.4,2.8
				l-1.6,1.5c-0.6,0.6-1.3,1.3-1.8,1.8c0.4-1.3,1-3.1,1-5.1c0-0.8-0.1-1.7-0.4-2.5c-1.4-4.3-4.3-6.3-7.6-5.3
				c-3.2,0.9-4.9,3.2-5.4,7.1c-0.1,0.4-0.1,0.9-0.1,1.3c0,2.8,0.9,5.3,1.4,6.5c0,0,0.1,0.3,0.1,0.4c-0.1,0.3-0.4,0.8-0.4,0.8l0,0.1
				c0,0.3-0.1,0.8-0.9,1.3l-0.7,0.5c-1,0.7-2,2.2-2.2,3.4l-1.4,7.7c-0.1,0.4-0.1,0.9-0.1,1.4c0,0.9,0.1,2,0.3,2.7l0.3,0.9
				c0.4,1.2,1.6,2.5,2.9,2.9l3.2,1c0.4,0.1,0.8,0.1,1.1-0.2c0.2-0.1,0.4-0.4,0.5-0.6c0,0.1,0,0.1,0,0.1c0,0.2-0.1,0.4-0.1,0.6
				c0,1.2,0.6,2.4,1.6,3l2.6,1.7c1,0.7,2.8,1.1,4,0.9l5.7-0.9c1.2-0.2,2.7-1,3.4-1.8c0.7-0.9,1.1-2.5,0.9-3.7l-2.3-13.2
				c-0.2-0.9-0.1-2.5,0.1-3.5l0.7-3.1c0.2-1,0.9-2.5,1.4-3.3c0,0,3.5-5.9,3.5-5.9c0.6-1,1.1-2.7,1.2-3.9l0.4-6.8
				C57.4,11.1,56.1,10.5,54.8,10.3z M33.2,45.8c-0.6-0.1-1.3-0.5-1.5-1.3c-0.2-0.7,0.7-2.4,1.3-1.5C33.5,43.8,33.9,45.9,33.2,45.8z"
				/>
			<path id="XMLID_5_" fill="#F1C59F" d="M53.9,4.1c-1,0.6-1.8,1.9-2.2,3.3c-0.3,1.2-0.1,2.2,0.4,3c0,0,2.3-1.2,3.7-0.5
				c1.2,0.6,1.9,1.7,1.9,1.7c0.9-0.6,1.4-1.5,1.4-2.6c0-0.9-0.3-1.8-0.9-2.8L58,6.1C57.3,5,56.6,4,55.6,3.7
				C55.1,3.6,54.5,3.7,53.9,4.1"/>
			<polygon id="XMLID_4_" fill="#EEDF77" points="61.2,6.3 60.7,10 65.6,10.4 64.9,12.8 77,12.3 68.7,10.2 69.4,7.9 			"/>
			<polygon id="XMLID_3_" fill="#EEDF77" points="50.1,8.6 41.5,7.4 43.8,3.5 34.5,0.9 47.8,0 46.4,4.4 50.8,4.9 			"/>
			<path id="XMLID_2_" fill="#040000" d="M84.9,77.8l-5.3-13.7c4.2-5.1,5.2-9.2,4.6-11.7c-0.4-1.4-1.4-2.4-2.7-2.6
				c-2.1-0.4-4.5,1-6.5,3.8c-1,1.4-2.1,2.1-3.1,1.9c-0.7-0.1-1.3-0.6-1.6-1.4c-0.7-1.7-0.3-4.9,2.7-8.6c3-3.7,3.4-7.7,2.5-10.1
				C74.9,34,74,33.2,72.8,33c-1.2-0.2-3.2,0.3-5.8,3.5c-1.8,2.4-2.8,2.4-3.1,2.3c-0.4-0.1-0.6-0.6-0.8-1c-0.7-2.4,0.5-8.2,4.6-12.2
				c0,0,0.4-0.5,0-0.9c-0.4-0.5-1-0.1-1-0.1c-4.6,4.5-5.8,10.8-4.9,13.6c0.3,1.1,1,1.8,1.9,1.9c1.3,0.2,2.8-0.7,4.5-2.8
				c1.6-2.1,3.2-3.1,4.4-3c0.9,0.1,1.3,0.9,1.6,1.5c0.7,1.9,0.4,5.5-2.3,8.7c-2.9,3.6-4,7.3-2.9,10c0.5,1.3,1.5,2.1,2.7,2.3
				c1.5,0.2,3.1-0.7,4.4-2.5c2-2.7,3.9-3.4,5.1-3.2c0.8,0.1,1.3,0.7,1.6,1.6c0.8,2.8-1.4,8.8-10.1,16.3c0,0-0.3,0.4,0,0.8
				c0.4,0.5,1,0.2,1,0.2c2-1.7,3.6-3.3,5-4.8l5.1,13c0,0,0.3,0.6,1,0.3C85.1,78.4,84.9,77.8,84.9,77.8z"/>
			<path fill="#F1C59F" d="M32.9,23.8c0,3.3,1.7,5.9,4,5.9c2.2,0,4-2.6,4-5.9c0-3.3-1.7-5.9-4-5.9C34.6,17.9,32.9,20.5,32.9,23.8"/>
		</g>
	</g>
</g>
</svg>
