<?xml version="1.0" encoding="utf-8"?>
<!-- Generator: Adobe Illustrator 19.0.1, SVG Export Plug-In . SVG Version: 6.00 Build 0)  -->
<!DOCTYPE svg PUBLIC "-//W3C//DTD SVG 1.1//EN" "http://www.w3.org/Graphics/SVG/1.1/DTD/svg11.dtd">
<svg version="1.1" id="レイヤー_1" xmlns="http://www.w3.org/2000/svg" xmlns:xlink="http://www.w3.org/1999/xlink" x="0px"
	 y="0px" viewBox="0 0 339 366.1" enable-background="new 0 0 339 366.1" xml:space="preserve">
<g>
	<path fill="#FFFFFF" d="M91.7,358.9c0.1-0.1,0.2-0.1,0.3-0.2c0.4-0.1,0.8-0.1,1.2,0.1c0.2,0.1,0.4,0.2,0.5,0.4l0.2,0.3l1.5-1.6
		l-0.2-0.2c-0.4-0.3-0.8-0.6-1.2-0.7c-0.8-0.3-1.7-0.3-2.6,0c-0.4,0.1-0.8,0.3-1.1,0.5c-0.3,0.2-0.6,0.5-0.8,0.9
		c-0.2,0.3-0.3,0.8-0.3,1.3c0,0.6,0.1,1,0.3,1.3c0.2,0.3,0.5,0.6,0.8,0.8c0.3,0.2,0.7,0.3,1,0.4c0.3,0.1,0.7,0.2,0.9,0.3
		c0.3,0.1,0.5,0.2,0.7,0.4c0.1,0.1,0.2,0.3,0.2,0.5c0,0.1,0,0.3-0.1,0.4c-0.1,0.1-0.1,0.2-0.3,0.3c-0.1,0.1-0.2,0.1-0.4,0.2
		c-0.4,0.1-0.9,0.1-1.3-0.1c-0.3-0.1-0.5-0.3-0.6-0.5l-0.2-0.3l-1.6,1.5l0.2,0.2c0.4,0.4,0.8,0.8,1.4,1c0.5,0.2,1,0.3,1.6,0.3
		c0.4,0,0.9,0,1.3-0.2c0.4-0.1,0.8-0.3,1.1-0.5c0.3-0.2,0.6-0.6,0.7-0.9c0.2-0.4,0.3-0.8,0.3-1.3c0-0.6-0.1-1-0.3-1.3
		c-0.2-0.3-0.5-0.6-0.8-0.8c-0.3-0.2-0.7-0.4-1-0.5c-0.3-0.1-0.7-0.2-0.9-0.3c-0.3-0.1-0.5-0.2-0.7-0.4c-0.1-0.1-0.2-0.2-0.2-0.4
		c0-0.1,0-0.3,0.1-0.3C91.6,359,91.6,358.9,91.7,358.9"/>
	<path fill="#FFFFFF" d="M109.9,358c-0.4-0.4-0.9-0.7-1.5-0.9c-0.6-0.2-1.2-0.3-1.8-0.3h-0.1c-0.7,0-1.3,0.1-1.9,0.3
		c-0.6,0.2-1.1,0.5-1.5,1c-0.4,0.4-0.7,0.9-1,1.5c-0.2,0.6-0.4,1.2-0.4,1.9c0,0.7,0.1,1.3,0.4,1.9c0.2,0.6,0.6,1.1,1,1.5
		c0.4,0.4,0.9,0.7,1.5,1c0.6,0.2,1.2,0.3,1.9,0.3h0h0c0.7,0,1.3-0.1,1.9-0.4c0.6-0.2,1.1-0.5,1.5-1c0.4-0.4,0.8-0.9,1-1.5
		c0.2-0.6,0.4-1.2,0.4-1.9c0-0.7-0.1-1.3-0.4-1.9C110.7,358.9,110.3,358.4,109.9,358 M109.1,361.4c0,0.4-0.1,0.8-0.2,1.1
		c-0.1,0.3-0.3,0.6-0.5,0.9c-0.2,0.3-0.5,0.4-0.8,0.6c-0.6,0.3-1.5,0.3-2.1,0c-0.3-0.1-0.6-0.3-0.8-0.6c-0.2-0.2-0.4-0.5-0.5-0.9
		c-0.1-0.3-0.2-0.7-0.2-1.1c0-0.4,0.1-0.7,0.2-1.1c0.1-0.3,0.3-0.6,0.5-0.8c0.2-0.2,0.5-0.4,0.8-0.6c0.3-0.1,0.7-0.2,1.1-0.2
		c0.4,0,0.8,0.1,1.1,0.2c0.3,0.1,0.6,0.3,0.8,0.6c0.2,0.2,0.4,0.5,0.5,0.8C109.1,360.6,109.1,361,109.1,361.4"/>
	<polygon fill="#FFFFFF" points="122.1,362.3 120,357 117.3,357 117.3,365.9 119.3,365.9 119.3,360.2 121.3,365.9 122.8,365.9 
		124.8,360.2 124.8,365.9 126.8,365.9 126.8,357 124.1,357 	"/>
	<polygon fill="#FFFFFF" points="136.1,362.3 139.9,362.3 139.9,360.4 136.1,360.4 136.1,358.9 140.2,358.9 140.2,357 134.1,357 
		134.1,365.9 140.4,365.9 140.4,364 136.1,364 	"/>
	<polygon fill="#FFFFFF" points="161.9,360.3 158.6,360.3 158.6,357 156.6,357 156.6,365.9 158.6,365.9 158.6,362.2 161.9,362.2 
		161.9,365.9 164,365.9 164,357 161.9,357 	"/>
	<path fill="#FFFFFF" d="M173.5,357l-3.9,8.9h2.3l0.8-1.9h3.2l0.8,1.9h2.3l-3.8-8.9H173.5z M175.1,362.1h-1.8l0.9-2.3L175.1,362.1z"
		/>
	<path fill="#FFFFFF" d="M190.7,361.3c0.4-0.5,0.6-1,0.6-1.7c0-0.5-0.1-1-0.3-1.3c-0.2-0.3-0.5-0.6-0.8-0.8
		c-0.3-0.2-0.7-0.3-1.1-0.4c-0.4-0.1-0.8-0.1-1.2-0.1h-3.2v8.9h2.1v-3.5h0.6l1.9,3.5h2.5l-2.3-3.8C190,362,190.4,361.7,190.7,361.3
		 M186.7,358.8h1c0.2,0,0.4,0,0.6,0c0.2,0,0.3,0.1,0.5,0.1c0.1,0.1,0.2,0.1,0.3,0.2c0.1,0.1,0.1,0.2,0.1,0.4c0,0.2,0,0.4-0.1,0.5
		c-0.1,0.1-0.2,0.2-0.3,0.2c-0.1,0.1-0.3,0.1-0.5,0.1c-0.2,0-0.4,0-0.6,0h-0.9V358.8z"/>
	<polygon fill="#FFFFFF" points="202.8,362.3 200.8,357 198.1,357 198.1,365.9 200,365.9 200,360.2 202.1,365.9 203.5,365.9 
		205.6,360.2 205.6,365.9 207.6,365.9 207.6,357 204.9,357 	"/>
	<path fill="#FFFFFF" d="M221.8,358c-0.4-0.4-0.9-0.7-1.5-0.9c-0.6-0.2-1.2-0.3-1.8-0.3h-0.1c-0.7,0-1.3,0.1-1.9,0.3
		c-0.6,0.2-1.1,0.5-1.5,1c-0.4,0.4-0.7,0.9-1,1.5c-0.2,0.6-0.3,1.2-0.3,1.9c0,0.7,0.1,1.3,0.3,1.9c0.2,0.6,0.6,1.1,1,1.5
		c0.4,0.4,0.9,0.7,1.5,1c0.6,0.2,1.2,0.3,1.9,0.3l0,0h0c0.7,0,1.3-0.1,1.9-0.4c0.6-0.2,1.1-0.5,1.5-1c0.4-0.4,0.8-0.9,1-1.5
		c0.2-0.6,0.4-1.2,0.4-1.9c0-0.7-0.1-1.3-0.4-1.9C222.6,358.9,222.3,358.4,221.8,358 M221.1,361.4c0,0.4-0.1,0.8-0.2,1.1
		c-0.1,0.3-0.3,0.6-0.5,0.9c-0.2,0.2-0.5,0.4-0.8,0.6c-0.6,0.3-1.5,0.3-2.1,0c-0.3-0.1-0.6-0.3-0.8-0.6c-0.2-0.2-0.4-0.5-0.5-0.9
		c-0.1-0.3-0.2-0.7-0.2-1.1c0-0.4,0.1-0.7,0.2-1.1c0.1-0.3,0.3-0.6,0.5-0.8c0.2-0.2,0.5-0.4,0.8-0.6c0.3-0.1,0.7-0.2,1.1-0.2
		c0.4,0,0.7,0.1,1.1,0.2c0.3,0.1,0.6,0.3,0.8,0.6c0.2,0.2,0.4,0.5,0.5,0.8C221,360.6,221.1,361,221.1,361.4"/>
	<polygon fill="#FFFFFF" points="235.1,362.5 231.5,357 229.1,357 229.1,365.9 231.1,365.9 231.1,360.1 234.9,365.9 237.2,365.9 
		237.2,357 235.1,357 	"/>
	<polygon fill="#FFFFFF" points="249.4,357 247.5,360 245.6,357 243,357 246.4,362.1 246.4,365.9 248.5,365.9 248.5,362.1 
		251.8,357 	"/>
	<g>
		<path fill="#FFFFFF" d="M38.6,233.5c-7.2,1.5-9.7,10.1-10.6,16.3c-0.4,2.9-0.6,5.9-0.6,8.9c0,2.4-0.4,6,0.4,8.4
			c-3.1,1.1-9.2,3.4-14,6.8c-7.7,5.5-8.7,11.3-3.6,13.2c6.9,2.5,14.8,0.1,24.5-5.4c7.2-4,9-8.6,9-8.6s1.1-8.8,1.1-13.3
			c0-4.5-0.5-15.2-2-18.2c-1.2-2.6-3.8-2.8-6-2.5c0.7-0.6,1.5-1.1,2.4-1.3c2.8-0.9,6.1,0.2,8.5,1.6c4.2,2.5,4.8,7.5,4.8,11.9
			c0,4.3,0,8.5,0,12.8c0,0.9,0,1.9,0,2.8c-0.9,1-1.9,1.5-3.2,1.8c-2.7,0.6-1.5,4.6,1.1,4.1c3-0.7,6.3-2.7,6.3-6.1
			c0-5.9,0-11.7,0-17.6C56.7,239.3,48.3,231.5,38.6,233.5z"/>
		<path fill="#FFFFFF" d="M280.8,87.7c-4.6-1.1-9.1-2.3-13.6-3.4l0.7-2.3c0.3-1-0.4-2.4-1.5-2.6c-5.1-1-10.3-2-15.4-3.1
			c-1.1-0.2-1.9,0.3-2.3,1.1c-0.2,0.3-0.3,0.6-0.4,1c-0.3,2.3-0.6,4.7-0.9,7c-0.1,1.2,1.1,2,2.1,2.1c2.2,0.2,4.3,0.4,6.5,0.6
			c-0.2,0.7-0.4,1.3-0.6,2c-0.4,1.3,0.7,2.7,2,2.7l22.7-0.9C282.6,91.8,283.2,88.3,280.8,87.7z M260.4,88.4c0.2-0.5,0.3-1.1,0.5-1.6
			c0.4-1.4-0.7-2.5-2-2.7c-2.3-0.2-4.6-0.4-6.9-0.7c0.1-0.9,0.2-1.7,0.3-2.6c3.6,0.7,7.3,1.4,10.9,2.2c-0.2,0.7-0.4,1.5-0.7,2.2
			c-0.3,1.1,0.4,2.3,1.5,2.6l1.5,0.4L260.4,88.4z"/>
	</g>
	<path fill="#FFFFFF" d="M336.9,0h-69.8H125.7H14.9H2.1C1,0,0,1,0,2.1V72v141.4v110.7v12.8c0,1.2,1,2.1,2.1,2.1H72h141.4h110.7h12.8
		c0.6,0,1.1-0.2,1.4-0.6c0,0,0,0,0.1-0.1c0,0,0,0,0.1-0.1c0.3-0.3,0.6-0.8,0.6-1.4v-69.8V125.7V14.9V2.1C339,1,338.1,0,336.9,0z
		 M4.2,48.2c0.3,0.3,0.7,0.5,1.3,0.5c18.1,1.7,36.2,3.9,54.2,6.3c29.6,4.1,60,8.3,88.5,17.6c24.1,7.8,67.2,22.7,80.4,27.3
		c-1.8,4.2-4.3,7.7-7.7,11.1c-1.2,1.2-2.5,2.4-3.7,3.6c-0.2-0.1-0.4-0.1-0.6-0.2c0.3-1.1,0.6-2.2,0.8-3.3
		c1.9-8.6-3.7-17.4-12.3-18.8c-0.1,0-0.1,0-0.2,0c-0.1,0-0.2-0.1-0.4-0.1c-3.6-0.2-8.1,2.6-10.2,5.4c-1.9,2.6-3,5.5-3.4,8.5
		c-0.9-0.3-1.9-0.6-2.8-0.9c-28.2-9-56.2-18.1-85.4-23c-32.1-5.3-64.7-8.7-97.2-11c-0.5,0-0.9,0.1-1.3,0.3V48.2z M283,152.1
		c-0.1-3.5-0.2-7.1-0.2-10.6l-0.2-9.7c12.6-2.4,25.2-4.9,37.8-7.3l-4.4,19.9L283,152.1z M290,154.8c-1.6,3-3.2,5.9-4.8,8.9
		c-0.7-0.3-1.3-0.5-2-0.8c-0.7-2-1.4-4-2.2-6c0.2,0,0.3,0,0.5-0.1C284.4,156.2,287.2,155.5,290,154.8z M314.3,121.4
		c-11.2,2.2-22.4,4.3-33.6,6.5c-9.7-4.3-19.5-8.5-29.2-12.8c9.8-1.9,19.7-3.8,29.5-5.7c11.4,3.9,22.7,7.8,34.1,11.8L314.3,121.4z
		 M259.8,224.9c0.4,1.8,0.8,3.7,1.2,5.5c0.4,1.9-1.2,1.9-2.8,1.5c1.6-3-0.8-9.1-1.3-12.7c-0.6-4.2-0.2-11.9,0.3-17.9
		c0.5-6,4.8-14.9-9.1-11.8c-6.1,1.3-10.2-0.6-10.6-4.6c-0.8-6.7-5.9-9.2-8.4-10.6c0.9-0.4,1.7-1,2.4-1.6c0.1,0.8,0.5,1.5,1.4,1.8
		c4.3,1.7,3.7,6.9,6.5,9.8c2.4,2.5,5.6,2.6,8.9,2.4c3.3-0.2,6.7-0.4,10-0.6c3.2-0.2,1.4,7.9,1.2,9.6c-0.5,6.3-1.4,12.7-1.3,19.1
		C258.1,218.3,259.1,221.7,259.8,224.9z M231.6,148.8c-0.6-3-1-6.1-1.6-9.1c-0.3-1.8-0.3-3.5-0.1-5.3c4.6,0.6,9.3,1.1,13.9,1.7
		c0,0.4,0.1,0.9,0.1,1.3c0,0.7,0.4,1.5,1,1.8c10.2,4.9,20.4,9.8,30.6,14.7c0.8,2.3,1.7,4.7,2.5,7c-0.3-0.1-0.6-0.2-0.9-0.3
		c-9.7-3.6-19.2-6.9-29.3-6.5C242.4,152.3,237,150.5,231.6,148.8z M230.7,130c0.5-1.8,1.2-3.6,2-5.4c4.1,1.6,8.7,3.6,9.5,4
		c0.4,0.2,0.7,0.3,1.1,0.3c0.1,0.9,0.1,1.8,0.2,2.7C239.2,131,235,130.5,230.7,130z M243.9,112.4c-0.2,0-0.5,0.2-0.7,0.3
		c-0.5,0.3-0.9,0.8-0.9,1.5c-0.1,0.4-0.1,0.7,0.1,1.1c0.2,3,0.4,5.9,0.6,8.9c-2.8-1.4-5.5-2.6-8.2-3.7c0.6-1.2,1.3-2.3,1.9-3.4
		c1.7-3,3.4-6,4.9-9.1c0.5-0.9,0.8-1.9,1-2.9c3.7,1.4,9.2,3.5,12.9,5C251.6,110.9,247.7,111.6,243.9,112.4z M242,85.7
		c-0.1,0.2-0.2,0.4-0.2,0.6c-1.6-0.9-3.8-1-5.4-1.1c0-0.4,0-0.7-0.3-1.1c-0.5-1-0.5-2.1-0.2-3.2c0.3-1.1,2.3-3.2,3.4-3.9
		c0.1,0,0.3,0.1,0.5,0.3c0.9,0.8,1.4,1.9,1.9,2.9C242.6,82.3,243.3,83.6,242,85.7z M236.4,89.1c-0.4,0.9,3.2,0,3.3,1.3
		c0.2,2-0.2,4.2-0.4,6.2c-0.1,0.9-0.1,1.9-0.2,2.8l-0.6,4.2c-0.3,1.2-0.7,2.5-1.3,3.7c-0.6,1.2-1.3,2.5-2,3.7
		c-0.6,0.6-1.2,1.2-1.8,1.8c-1.7,1.6-3.5,3.5-5,5.6c0,0,0,0,0,0l0,0c-0.8,1.2-1.6,2.4-2.2,3.6l0,0c0,0,0,0,0,0
		c-0.3,0.7-0.6,1.5-0.9,2.2c-0.7,2.2-0.5,6.1-0.1,9.5v0c0.1,0.5,0.1,0.9,0.2,1.3c-0.1,1.3,0,2.7,0.2,4c0.4,2.7,1.2,7.4,1.4,8.2
		c0.2,0.8,2.5,11.8,2.6,12.6c0.2,0.7,1,5.3,0.2,7.6c-0.1,0.4-0.3,0.8-0.5,1.1c-0.3-3.2-1.8-7.9-2.5-9.6c-1.4-3.5-6.2-11.9-6.7-13.7
		c-0.3-1.2-0.4-1.7-0.7-2.6c-0.5-1.8-1.9-7-3.8-10c0,0,0,0,0,0l0,0c-0.3-0.5-0.7-1-1-1.3c-2-1.9-4.5-3-6.3-4.1
		c-1.8-1.1-2.8-2.2-1.3-4.2c1.5-0.7,2.7-2,3.6-3.7c-0.2,1.2-0.1,2.4,1.1,3.1c2.5,1.4,4.6-1.3,6.1-2.9c3.3-3.3,6.8-6.4,9.7-10
		c2.2-2.7,3.6-5.4,4.8-8.3l0,0c0.9-2.3,1.6-4.7,2.4-7.2C235.5,92.4,235.7,90.6,236.4,89.1z M217.2,259.8c0.1,2.2,0.3,4.3,0.5,6.5
		c0.1,1.1,0.7,5.4,0,5.4c-0.4,0-1.1,0-1.9-0.1c-0.1-0.8-0.3-1.9-0.4-3.4c-0.6-7.5-0.9-15.8,0-19.1c1-3.7,2-12.6,1.8-15.2
		c-0.2-1.8-0.2-19.1,5-20.6c-1.2,3.2-1.7,6.7-1.9,10.1c-0.2,3.7-0.2,7.4-0.2,11.2c0,4.8-0.8,8.6-2.3,13.2
		C216.5,251.7,217,255.7,217.2,259.8z M202,96.8c0.8-0.3,1.5-0.4,2.3-0.4c4.5,0.8,6.9,3.2,8.4,7.6c1,2.9,0.7,5.6,0,8.3
		c0-0.3,0-0.6,0.1-0.9c-0.2-5.3-2.3-11.5-8.3-12.1c-0.7-0.1-1.4,0-2.1,0.2C201.7,98.8,202.2,97.6,202,96.8z M199.5,166.1
		c0,1-0.9,0.9-1.8,0.2c-0.5-0.4-1.3-1-2.2-1.8C197.2,165.1,199.5,166.1,199.5,166.1z M4.2,74.9c0.3,0.3,0.7,0.5,1.3,0.5
		c19.1,1.4,38.2,3.3,57.2,5.5c29.4,3.4,58.2,8,86.5,16.6c13.9,4.2,27.7,8.6,41.5,13c0,0.9,0.1,1.8,0.2,2.7c0.5,4.1,3.1,8.9,0.9,12.4
		c-31.6-3.4-63.2-6.2-94.8-8.6c-30.5-2.3-61-4.4-91.6-5.6c-0.5,0-0.9,0.1-1.3,0.3V74.9z M173.4,219.6c-0.6-2.4-1-5.1-1-7.5
		c-0.1-2.1,2.4-3.9,3.9-5.2c0.7,5.5,3.3,10.7,7.2,14.8c3,3.1,5.6,6.2,8,9.9c1.3,2,2.3,3.7,3.7,5c-2.8,1.2-9.4,7-13.9,11.2
		c0-1.1-0.2-2.3-0.3-3.2c-0.4-3.6-0.8-7.1-1.9-10.6C177.6,228.9,174.7,224.6,173.4,219.6z M176.3,252.8c-8.2,10-8.9,9.1-14.3,10.6
		c-4.2,1.2,4.2-2.3,14-10.6C176.1,252.8,176.2,252.8,176.3,252.8z M168.8,163.7c-4.7-2.8-7.2-3.6-9.6,0c-1.2,1.8-2,2.9-2.9,3.9
		c0.9-1.9,1.6-3.9,2.4-5.7c1.5-3.3,4.1-7.7,8.1-7.7c3,0,5.6,2.4,5.8,5.4c0.1,0.9,0.6,1.5,1.2,1.8
		C172.1,161.8,170.3,162.6,168.8,163.7z M189,221.2c-3.6-3.3-3.5-8.7-1-9.7c-0.2,3.3,0.6,6.9,2.3,9c1.2,1.4,3,2.4,4.4,3.5
		c1.7,1.4,3.2,3.3,4.6,5.1c1.2,1.6,2,3.3,2.8,5.2c0.1,0.2,0.2,0.4,0.3,0.7c-0.3,0-0.5-0.1-0.8-0.1c-0.4-0.1-0.7-0.1-1-0.2
		c-1-1.3-2.6-3.3-3.7-5.1C195,226.8,191.2,223.3,189,221.2z M185.6,135.3C185.6,135.3,185.6,135.3,185.6,135.3
		c-23.2-6-47-9.2-70.7-12.5c5.5,0.5,11,0.9,16.5,1.4c18.9,1.6,37.7,3.4,56.5,5.4C186.7,131.1,186.2,132.9,185.6,135.3z M91.4,292.6
		c-6.1,3.1,19.7-18.2,13.5-18.6c-3.6-0.2-85.5,30.2-50.3,40.9c0,10.5,3.2,16.1,6.8,19.9H14.9H4.2v-67.7V125.7v-10.3
		c0.3,0.3,0.8,0.4,1.3,0.4c7.9,0.3,15.7,0.7,23.6,1.1c41.3,6.4,82.8,12.4,123.7,21c10.3,2.2,20.6,4.7,30.8,7.5
		c-0.8,5.7-0.6,11.6,2.7,15.8c-2.6-0.9-6.1-1.1-9.6-0.5c0.2-0.3,0.3-0.7,0.2-1.1c-0.6-6.5-8.2-12.4-14.5-8.6
		c-3.8,2.2-6.3,6.4-7.9,10.4c-1.5,3.6-3.1,8.5-6.3,10.8c-3.5,2.6-8.8,1.8-12.2,4.4c-3.4,2.6-1.1,6.1,2.2,7.3
		c0.5,0.2,1.1,0.4,1.6,0.6c0.1,0.1,0.1,0.1,0.2,0.1c-0.4,0.6-0.5,1-0.5,1.8c-0.1,1.6,1.8,2.5,3.1,2.7c4.6,0.5,9.7-0.4,13.9-2.4
		c0,0,0,0,0,0c0,0.2-0.1,0.4-0.1,0.6c-0.7,5.1-1.7,10.2-1.8,15.4c0,3.5,1.5,7.6,2.6,10.9c1.1,3.4,2.9,6.6,4.4,9.9
		c1.6,3.7,2.6,7.7,3.6,11.5c0.4,1.5,0.9,3,0.9,4.6c0.1,1.6-0.4,3.1-0.3,4.7c0.1,1.4,0.4,2.8,1,4.1c-6.4,4-23,16.2-34.8,22.2
		C121.6,275.7,109.2,283.7,91.4,292.6z M156.6,296.5c0.2-6.3,18.4-24.5,21.2-30.2c4.5-9.2,20.1-23.4,22.4-27.4
		c2.1,0.4,4.7,0.5,6.2-0.9c2.3-2.3-1.5-7.6-2.6-9.6c-2-3.5-5.2-6.7-8.4-9c-2.4-1.7-2.9-2.8-2.9-5.5c0-1.4-0.1-3,0.2-4.4
		c1,0.4,2.1,0.7,3.2,0.9c2.2,0.4,4.4,0.5,6.7,0.7c2.6,0.2,3.5,0.7,4.2,3.1c1.2,4.1,1.7,8.5,2.5,12.7c1,5.3-0.5,9.8-0.7,15
		c-0.1,3.4,0.6,6.7,0.2,10.2c-0.5,3.7-0.9,7.3-1.4,11c-0.3,2.6-0.8,5.4-0.4,8c-0.2,0.2-0.4,0.4-0.5,0.6
		c-3.8,5.6-21.5,18.3-43.5,33.7C152,313,156.3,307,156.6,296.5z M334.8,213.4v110.7v10.7h-67.7H160.4c0.5-0.7,1.1-1.3,1.7-1.9
		c28.7-27.1,46-48.3,52.4-57.3c1.7,0.4,3.6,0.6,5.1,0c3.1-1.1,2.7-5.9,2.4-8.4c-0.4-4.5-0.7-8.9-0.9-13.4c-0.1-4.3,2.1-8.2,2.9-12.4
		c1.4-7.5-0.6-15.5,1-23c1-4.5,2.7-8.1,6.4-10.8c0.6-0.5,1.3-0.9,2-1.2c0.1,0.1,0.3,0.1,0.5,0.2c1.2,0.6,2.8,0.3,4.1,0.1
		c4.2-0.8,7.8-3.9,11.3-6.2c2.4-1.6,1.4,0.2,1.1,2.2c-0.4,2.4-0.7,4.8-1.1,7.2c-0.4,2-0.7,4-0.7,6.1c0,1.7,0.7,3.5,0.8,5.2
		c0.4,3.9-1.2,7.5,0.5,11.2c1.4,3.1,5.9,3.1,8.7,3.4c3.1,0.4,5.5-0.1,6.8-3.3c0.5-1.2-0.3-3.2-0.5-4.4c-0.4-1.7-0.7-3.4-1.1-5.2
		c-0.7-3.4-1.6-6.8-1.4-10.4c0.2-6.8,1-13.6,1.5-20.4c0.2-2.7,0.8-5.3-0.4-7.9c-1.5-3.2-5.9-2.4-8.6-2.2c-3.3,0.2-7.2,0.9-10.5,0.4
		c-3.4-0.6-4.4-7-6.4-9.5c-1-1.3-2.6-2-4.1-2.6c-0.2-0.1-0.4-0.1-0.6-0.1c0.3-0.5,0.6-1.1,0.8-1.8c0.6-1.9,0.7-4,0.4-6.2
		c0.1,0.1,0.1,0.1,0.2,0.2c2.9,2.9,7.9,4.9,11.5,7c4.6,2.7,9.3,5.4,14.1,7.9c6.3,3.2,12.1,4.9,19.2,5c6.5,0.1,13.4-0.5,19.6-2.4
		c2.3-0.7,5.1-2,5.2-4.7c0-0.3,0-0.6-0.2-0.8c-0.9-3.3-6.5-5.4-9.1-6.6c-1.9-0.9-3.9-1.8-5.9-2.6c2.1-3.9,4.2-7.7,6.3-11.6
		c0-0.1,0.1-0.1,0.1-0.2c7.6-1.8,15.2-3.6,22.9-5.4c0.4-0.1,0.7-0.3,1-0.6c4.7,0.8,9.4,1.6,14.1,2.5c0.5,0.1,1,0,1.4-0.2V213.4z
		 M334.8,72v73.7c-0.1,0-0.1,0-0.2-0.1c-4.7-0.8-9.3-1.7-14-2.5c1.5-6.8,3-13.7,4.5-20.5c0.1-0.2,0.1-0.4,0.1-0.5
		c0.1-0.9-0.3-1.7-1.1-2.1c-0.1-0.1-0.3-0.2-0.5-0.2c-14-4.8-28-9.7-42-14.5c-0.6-0.2-1.1-0.1-1.5,0.1c-6,1.2-12.1,2.3-18.1,3.5
		c-0.2-0.4-0.6-0.8-1.2-1.1c-5.9-2.4-11.8-4.7-17.7-6.9c0.1-1.2,0.2-2.3,0.3-3.5c0.2-2.6,1-5.9,0.3-8.6c0.7,0,1.4-0.2,1.8-1
		c1.9-3.2,1.5-5.9,0-9c-1.2-2.6-3-6.2-6.4-6.2c-2.7,0-5.1,3.4-6.5,5.2c0.1-0.5,0.2-0.9,0.3-1.4c0.2-0.9-0.2-1.6-0.8-2.1
		c0,0-0.1-0.1-0.1-0.1c0,0,0,0,0,0c-0.3-0.2-0.6-0.4-1.1-0.4c-1.9-0.2-3.8-0.4-5.7-0.7l1.9-6c0.4-1.2-0.7-2.8-2-2.7
		c-8.3,0.6-16.6,1.2-24.9,1.7c-2.3,0.2-2.9,3.5-0.6,4.1c4.9,1.4,9.9,2.7,14.8,4.1l-3,5.1c-0.6,1.1-0.1,2.9,1.3,3.1
		c5.4,0.8,10.9,1.5,16.3,2.3c1,0.1,2.1-0.2,2.5-1.2c0.2,0.9,0.5,1.7,0.9,2.4c0.2,0.3,0.4,0.5,0.6,0.7c-1.7,2.3-2.4,6.4-3,9.1
		c-25.7-9.3-51.7-17.8-77.6-26.4c-28.7-9.5-59-14-88.9-18.2c-19.3-2.7-38.6-5.1-58-6.9c-0.5,0-0.9,0.1-1.3,0.3V14.9V4.2H72h141.4
		h110.7h10.7V72z M218.3,71.1c-1.9-0.5-3.7-1-5.6-1.5c3.2-0.2,6.4-0.4,9.5-0.7l-1.7,5.4c-0.5,1.4,0.7,2.5,2,2.7c2,0.2,4,0.5,5.9,0.7
		c-0.2,0.9-0.4,1.9-0.5,2.8c-3.7-0.5-7.5-1.1-11.2-1.6l2.8-4.7C220.2,73,219.6,71.4,218.3,71.1z"/>
</g>
</svg>
