<?xml version="1.0" encoding="utf-8"?>
<!-- Generator: Adobe Illustrator 19.0.1, SVG Export Plug-In . SVG Version: 6.00 Build 0)  -->
<!DOCTYPE svg PUBLIC "-//W3C//DTD SVG 1.1//EN" "http://www.w3.org/Graphics/SVG/1.1/DTD/svg11.dtd">
<svg version="1.1" id="レイヤー_1" xmlns="http://www.w3.org/2000/svg" xmlns:xlink="http://www.w3.org/1999/xlink" x="0px"
	 y="0px" viewBox="-395 273.3 50 50" enable-background="new -395 273.3 50 50" xml:space="preserve">
<path fill="#0E0E38" d="M-370.4,306.7c-0.4,0-0.7-0.2-0.9-0.3l-0.1,0c-0.1,0-0.1-0.1-0.2-0.1l-15.9-12c0,0-0.1-0.1-0.1-0.1
	c-0.6-0.6-0.8-1.5-0.4-2.3c0-0.1,0.1-0.2,0.2-0.3c0.4-0.4,0.9-0.6,1.4-0.6c0.3,0,0.6,0.1,0.9,0.2c0.1,0,0.1,0.1,0.2,0.1l14.9,11.2
	l14.9-11c0.3-0.3,0.7-0.4,1.1-0.4c0.5,0,1.1,0.3,1.4,0.7c0.3,0.3,0.4,0.7,0.4,1.2c0,0.5-0.3,1-0.8,1.4l-15.9,12
	c-0.1,0.1-0.3,0.2-0.5,0.2C-369.9,306.6-370.2,306.7-370.4,306.7z"/>
<path id="XMLID_1_" fill="#0E0E38" d="M-370.4,305.7c-0.2,0-0.3-0.1-0.5-0.2l-15.9-12c-0.3-0.3-0.4-0.7-0.2-1.1
	c0.3-0.3,0.7-0.4,1.1-0.2l15.5,11.6l15.5-11.5c0.3-0.3,0.8-0.2,1.1,0.2c0.3,0.3,0.2,0.8-0.2,1.1l-15.9,12
	C-370,305.6-370.2,305.7-370.4,305.7z"/>
</svg>
