<?xml version="1.0" encoding="utf-8"?>
<!-- Generator: Adobe Illustrator 19.0.0, SVG Export Plug-In . SVG Version: 6.00 Build 0)  -->
<!DOCTYPE svg PUBLIC "-//W3C//DTD SVG 1.1//EN" "http://www.w3.org/Graphics/SVG/1.1/DTD/svg11.dtd">
<svg version="1.1" id="レイヤー_1" xmlns="http://www.w3.org/2000/svg" xmlns:xlink="http://www.w3.org/1999/xlink" x="0px"
	 y="0px" viewBox="0 0 364 78.3" enable-background="new 0 0 364 78.3" xml:space="preserve">
<path fill="#FFFFFF" d="M361.7,15H213.1c-0.2,0-0.4-0.1-0.5-0.3C205.1,5.4,194,0,182,0c-12,0-23.1,5.4-30.6,14.7
	c-0.1,0.2-0.3,0.3-0.5,0.3H2.4C1.1,15,0,16,0,17.3v43c0,1.3,1.1,2.4,2.4,2.4h148c0.2,0,0.4,0.1,0.5,0.3c7.5,9.8,18.8,15.4,31.1,15.4
	s23.6-5.6,31.1-15.4c0.1-0.2,0.3-0.3,0.5-0.3h148c1.3,0,2.4-1.1,2.4-2.4V17.3C364,16,363,15,361.7,15z M362.4,60.3
	c0,0.4-0.3,0.7-0.7,0.7h-148c-0.7,0-1.4,0.3-1.8,0.9c-7.2,9.4-18,14.7-29.8,14.7c-11.8,0-22.6-5.4-29.8-14.7
	c-0.4-0.6-1.1-0.9-1.9-0.9H2.4c-0.4,0-0.7-0.3-0.7-0.7v-43c0-0.4,0.3-0.7,0.7-0.7h148.5c0.7,0,1.4-0.3,1.8-0.9
	c7.2-9,17.8-14.1,29.3-14.1c11.4,0,22.1,5.1,29.3,14.1c0.5,0.6,1.1,0.9,1.8,0.9h148.5c0.4,0,0.7,0.3,0.7,0.7V60.3z"/>
<g>
	<path fill="#FFFFFF" d="M358.5,51.4v-3c-0.1-0.2-0.2-0.3-0.2-0.5c0-0.2,0.1-0.4,0.2-0.5c0.1-0.1,0.4-0.2,0.7-0.2h0.6v6.2h-1.4
		c-2-2.4-3.3-3.9-3.9-4.4c-0.3-0.3-0.6-0.4-0.8-0.4c-0.3,0-0.6,0.1-0.9,0.4c-0.3,0.3-0.4,0.7-0.4,1.2c0,0.5,0.1,0.9,0.4,1.2
		c0.1,0.2,0.4,0.3,0.7,0.4c0.2,0.1,0.3,0.1,0.4,0.3c0.1,0.1,0.1,0.2,0.1,0.4c0,0.2-0.1,0.3-0.2,0.5c-0.1,0.1-0.3,0.2-0.5,0.2
		c-0.3,0-0.6-0.1-1-0.4c-0.4-0.2-0.7-0.6-0.9-1.1c-0.2-0.5-0.4-1-0.4-1.5c0-0.9,0.3-1.6,0.8-2.1c0.5-0.5,1.1-0.8,1.9-0.8
		c0.4,0,0.7,0.1,1,0.2c0.3,0.2,0.8,0.5,1.3,1.1C356.6,49.1,357.3,50,358.5,51.4z"/>
	<path fill="#FFFFFF" d="M354.8,39.7h1.5c0.9,0,1.7,0.3,2.5,0.8c0.8,0.5,1.2,1.2,1.2,2.2c0,0.5-0.1,1-0.4,1.4
		c-0.2,0.4-0.7,0.7-1.3,1.1c-0.6,0.3-1.3,0.5-2,0.5h-1.5c-0.9,0-1.7-0.3-2.5-0.8c-0.8-0.5-1.2-1.2-1.2-2.2c0-0.5,0.1-1,0.4-1.4
		c0.2-0.4,0.7-0.7,1.3-1.1C353.4,39.9,354.1,39.7,354.8,39.7z M354.8,41.1c-0.7,0-1.4,0.2-1.9,0.6c-0.3,0.2-0.5,0.6-0.5,1
		c0,0.4,0.2,0.7,0.5,1c0.5,0.4,1.1,0.6,1.9,0.6h1.5c0.7,0,1.4-0.2,1.9-0.6c0.3-0.2,0.5-0.6,0.5-1c0-0.4-0.2-0.7-0.5-1
		c-0.5-0.4-1.1-0.6-1.9-0.6H354.8z"/>
	<path fill="#FFFFFF" d="M354.8,32.3h1.5c0.9,0,1.7,0.3,2.5,0.8c0.8,0.5,1.2,1.2,1.2,2.2c0,0.5-0.1,1-0.4,1.4
		c-0.2,0.4-0.7,0.7-1.3,1.1c-0.6,0.3-1.3,0.5-2,0.5h-1.5c-0.9,0-1.7-0.3-2.5-0.8c-0.8-0.5-1.2-1.2-1.2-2.2c0-0.5,0.1-1,0.4-1.4
		c0.2-0.4,0.7-0.7,1.3-1.1C353.4,32.5,354.1,32.3,354.8,32.3z M354.8,33.7c-0.7,0-1.4,0.2-1.9,0.6c-0.3,0.2-0.5,0.6-0.5,1
		c0,0.4,0.2,0.7,0.5,1c0.5,0.4,1.1,0.6,1.9,0.6h1.5c0.7,0,1.4-0.2,1.9-0.6c0.3-0.2,0.5-0.6,0.5-1c0-0.4-0.2-0.7-0.5-1
		c-0.5-0.4-1.1-0.6-1.9-0.6H354.8z"/>
	<path fill="#FFFFFF" d="M355.5,25.9c0.3-0.3,0.6-0.6,0.9-0.8c0.3-0.2,0.7-0.3,1.1-0.3c0.5,0,0.9,0.1,1.2,0.3c0.4,0.2,0.7,0.6,0.9,1
		c0.2,0.5,0.3,1,0.3,1.6c0,0.6-0.1,1.1-0.3,1.6c-0.2,0.5-0.5,0.8-0.9,1c-0.4,0.2-0.8,0.3-1.2,0.3c-0.4,0-0.8-0.1-1.1-0.3
		c-0.3-0.2-0.6-0.4-0.9-0.8c-0.3,0.3-0.6,0.5-0.9,0.7c-0.3,0.2-0.7,0.2-1,0.2c-0.7,0-1.3-0.3-1.8-0.8c-0.5-0.5-0.7-1.2-0.7-2
		c0-0.8,0.2-1.5,0.7-2c0.5-0.5,1.1-0.8,1.8-0.8c0.4,0,0.7,0.1,1,0.2C355,25.4,355.3,25.6,355.5,25.9z M353.7,26.4
		c-0.3,0-0.6,0.1-0.9,0.4c-0.2,0.3-0.4,0.6-0.4,1.1c0,0.4,0.1,0.8,0.4,1.1c0.2,0.3,0.5,0.4,0.9,0.4c0.3,0,0.6-0.1,0.9-0.4
		c0.2-0.3,0.4-0.6,0.4-1.1c0-0.4-0.1-0.8-0.4-1.1C354.3,26.5,354,26.4,353.7,26.4z M357.6,26.2c-0.4,0-0.7,0.2-1,0.5
		s-0.4,0.7-0.4,1.1s0.1,0.8,0.4,1.1c0.3,0.3,0.6,0.5,1,0.5c0.3,0,0.5-0.1,0.7-0.4c0.2-0.3,0.3-0.7,0.3-1.2c0-0.5-0.1-0.9-0.3-1.2
		C358.2,26.4,357.9,26.2,357.6,26.2z"/>
</g>
<g>
	<path fill="#FFFFFF" d="M14.2,55.8c-2.4,0-4.2-0.8-5.4-2.3C7.7,52,7.1,49.9,7.1,47c0-0.5,0.3-0.8,0.8-0.8c0.2,0,0.4,0.1,0.5,0.2
		c0.1,0.1,0.2,0.3,0.2,0.6c0,1.6,0.2,2.9,0.5,3.9c0.4,1,0.8,1.7,1.4,2.2c0.5,0.5,1.1,0.8,1.8,1c0.7,0.1,1.3,0.2,1.9,0.2
		c1.8,0,3.2-0.6,4.1-1.9c1-1.2,1.5-3,1.5-5.2c0-1.2-0.2-2.2-0.6-3c-0.4-0.8-0.9-1.5-1.5-2c-0.6-0.5-1.2-0.9-1.8-1.2
		c-0.6-0.3-1.1-0.5-1.5-0.7l-0.8-0.4c-0.5-0.2-1.1-0.5-1.8-0.9c-0.7-0.4-1.4-0.9-2.1-1.6c-0.7-0.7-1.3-1.5-1.8-2.5s-0.7-2.2-0.7-3.7
		c0-2.5,0.6-4.6,1.7-6.2c1.3-1.8,3.1-2.7,5.4-2.7c2.4,0,4.2,0.8,5.4,2.3c1.2,1.5,1.8,3.7,1.8,6.6c0,0.2-0.1,0.4-0.2,0.5
		c-0.1,0.2-0.3,0.2-0.6,0.2c-0.2,0-0.4-0.1-0.6-0.2c-0.1-0.2-0.2-0.3-0.2-0.5c0-2.5-0.5-4.4-1.4-5.6c-0.9-1.2-2.3-1.7-4.2-1.7
		c-1.8,0-3.1,0.7-4.1,2.1c-1,1.4-1.5,3.1-1.5,5.3c0,1.2,0.2,2.2,0.6,3s0.9,1.5,1.5,2.1c0.6,0.5,1.2,1,1.8,1.3
		c0.6,0.3,1.2,0.6,1.7,0.8l0.8,0.3c0.4,0.2,1,0.5,1.7,0.8c0.7,0.4,1.4,0.9,2.1,1.5s1.3,1.5,1.8,2.4c0.5,1,0.8,2.2,0.8,3.6
		c0,1.2-0.2,2.3-0.5,3.4c-0.3,1-0.8,1.9-1.3,2.7C18.3,55,16.5,55.8,14.2,55.8z"/>
	<path fill="#FFFFFF" d="M31.4,55.9c-0.8,0-1.6-0.1-2.5-0.3c-0.8-0.2-1.6-0.7-2.3-1.3c-0.7-0.7-1.3-1.6-1.7-2.7
		c-0.4-1.1-0.6-2.6-0.6-4.5V31.3c0-2.8,0.6-5,1.7-6.5c1.2-1.5,3-2.3,5.4-2.3c2.4,0,4.2,0.8,5.4,2.3c1.2,1.5,1.8,3.7,1.8,6.5V47
		c0,1.9-0.2,3.3-0.6,4.5c-0.4,1.1-1,2-1.7,2.7c-0.7,0.7-1.5,1.1-2.3,1.3C33,55.7,32.2,55.9,31.4,55.9z M31.4,24
		c-1.9,0-3.3,0.6-4.1,1.7c-1,1.2-1.4,3.1-1.4,5.5V47c0,2.5,0.5,4.4,1.4,5.6c0.9,1.2,2.3,1.7,4.1,1.7c1.8,0,3.2-0.6,4.2-1.7
		c0.9-1.2,1.4-3,1.4-5.6V31.3c0-2.5-0.5-4.4-1.4-5.5C34.6,24.6,33.2,24,31.4,24z"/>
	<path fill="#FFFFFF" d="M60.5,55.9c-0.5,0-0.8-0.3-0.8-0.8V28.8l-7.6,26.5c-0.1,0.4-0.4,0.5-0.8,0.5c-0.4,0-0.6-0.2-0.7-0.5
		L43,28.8v26.3c0,0.5-0.3,0.8-0.8,0.8c-0.5,0-0.8-0.3-0.8-0.8V23.2c0-0.4,0.2-0.7,0.7-0.7c0.4-0.1,0.7,0.1,0.8,0.5l8.4,29.2L59.7,23
		c0.1-0.4,0.4-0.6,0.8-0.5c0.5,0.1,0.7,0.3,0.7,0.7v31.9c0,0.2-0.1,0.4-0.2,0.6C60.8,55.8,60.7,55.9,60.5,55.9z"/>
	<path fill="#FFFFFF" d="M66.6,39.9v14.4h9.7c0.2,0,0.4,0.1,0.6,0.2c0.1,0.1,0.2,0.3,0.2,0.5c0,0.5-0.3,0.8-0.8,0.8H65.8
		c-0.5,0-0.8-0.3-0.8-0.8V23.2c0-0.2,0.1-0.4,0.2-0.5c0.1-0.1,0.3-0.2,0.6-0.2h10.4c0.2,0,0.4,0.1,0.6,0.2c0.1,0.1,0.2,0.3,0.2,0.5
		c0,0.5-0.3,0.8-0.8,0.8h-9.7v14.4h9.7c0.5,0,0.8,0.3,0.8,0.8c0,0.2-0.1,0.4-0.2,0.5c-0.1,0.1-0.3,0.2-0.6,0.2H66.6z"/>
	<path fill="#FFFFFF" d="M89.2,55.8c-2.4,0-4.2-0.8-5.4-2.3c-1.2-1.5-1.8-3.7-1.8-6.5c0-0.5,0.3-0.8,0.8-0.8c0.2,0,0.4,0.1,0.5,0.2
		c0.1,0.1,0.2,0.3,0.2,0.6c0,1.6,0.2,2.9,0.5,3.9c0.4,1,0.8,1.7,1.4,2.2c0.5,0.5,1.1,0.8,1.8,1c0.7,0.1,1.3,0.2,1.9,0.2
		c1.8,0,3.2-0.6,4.1-1.9c1-1.2,1.5-3,1.5-5.2c0-1.2-0.2-2.2-0.6-3c-0.4-0.8-0.9-1.5-1.5-2c-0.6-0.5-1.2-0.9-1.8-1.2
		c-0.6-0.3-1.1-0.5-1.5-0.7l-0.8-0.4c-0.5-0.2-1.1-0.5-1.8-0.9c-0.7-0.4-1.4-0.9-2.1-1.6c-0.7-0.7-1.3-1.5-1.8-2.5s-0.7-2.2-0.7-3.7
		c0-2.5,0.6-4.6,1.7-6.2c1.3-1.8,3.1-2.7,5.4-2.7c2.4,0,4.2,0.8,5.4,2.3c1.2,1.5,1.8,3.7,1.8,6.6c0,0.2-0.1,0.4-0.2,0.5
		c-0.1,0.2-0.3,0.2-0.6,0.2c-0.2,0-0.4-0.1-0.6-0.2c-0.1-0.2-0.2-0.3-0.2-0.5c0-2.5-0.5-4.4-1.4-5.6c-0.9-1.2-2.3-1.7-4.2-1.7
		c-1.8,0-3.1,0.7-4.1,2.1c-1,1.4-1.5,3.1-1.5,5.3c0,1.2,0.2,2.2,0.6,3s0.9,1.5,1.5,2.1c0.6,0.5,1.2,1,1.8,1.3
		c0.6,0.3,1.2,0.6,1.7,0.8l0.8,0.3c0.4,0.2,1,0.5,1.7,0.8c0.7,0.4,1.4,0.9,2.1,1.5s1.3,1.5,1.8,2.4c0.5,1,0.8,2.2,0.8,3.6
		c0,1.2-0.2,2.3-0.5,3.4c-0.3,1-0.8,1.9-1.3,2.7C93.3,55,91.5,55.8,89.2,55.8z"/>
	<path fill="#FFFFFF" d="M106.4,55.9c-0.8,0-1.6-0.1-2.5-0.3c-0.8-0.2-1.6-0.7-2.3-1.3c-0.7-0.7-1.3-1.6-1.7-2.7
		c-0.4-1.1-0.6-2.6-0.6-4.5V31.3c0-2.8,0.6-5,1.7-6.5c1.2-1.5,3-2.3,5.4-2.3c2.4,0,4.2,0.8,5.4,2.3c1.2,1.5,1.8,3.7,1.8,6.5V47
		c0,1.9-0.2,3.3-0.6,4.5c-0.4,1.1-1,2-1.7,2.7c-0.7,0.7-1.5,1.1-2.3,1.3C108.1,55.7,107.3,55.9,106.4,55.9z M106.4,24
		c-1.9,0-3.3,0.6-4.1,1.7c-1,1.2-1.4,3.1-1.4,5.5V47c0,2.5,0.5,4.4,1.4,5.6c0.9,1.2,2.3,1.7,4.1,1.7c1.8,0,3.2-0.6,4.2-1.7
		c0.9-1.2,1.4-3,1.4-5.6V31.3c0-2.5-0.5-4.4-1.4-5.5C109.7,24.6,108.3,24,106.4,24z"/>
	<path fill="#FFFFFF" d="M130.2,55.9c-0.4,0-0.6-0.2-0.7-0.5l-11.3-28.1v27.8c0,0.5-0.3,0.8-0.8,0.8c-0.5,0-0.8-0.3-0.8-0.8V23.2
		c0-0.4,0.2-0.7,0.6-0.7c0.4-0.1,0.7,0.1,0.9,0.5l11.3,28.1V23.2c0-0.2,0.1-0.4,0.2-0.5c0.1-0.1,0.3-0.2,0.6-0.2
		c0.2,0,0.4,0.1,0.6,0.2c0.1,0.1,0.2,0.3,0.2,0.5v31.9c0,0.4-0.2,0.7-0.6,0.8H130.2z"/>
	<path fill="#FFFFFF" d="M141.4,55.9c-2.3,0-4.1-0.8-5.4-2.3c-1.2-1.5-1.8-3.7-1.8-6.5V31.2c0-2.9,0.6-5.1,1.8-6.5
		c1.2-1.5,3-2.2,5.4-2.2s4.2,0.7,5.4,2.2c1.2,1.5,1.8,3.7,1.8,6.5c0,0.5-0.3,0.8-0.8,0.8c-0.5,0-0.8-0.3-0.8-0.8
		c0-1.6-0.2-2.9-0.5-3.9c-0.4-1-0.8-1.7-1.4-2.2c-0.5-0.5-1.1-0.8-1.8-1c-0.6-0.1-1.3-0.2-1.9-0.2s-1.2,0.1-1.9,0.2
		c-0.7,0.1-1.3,0.5-1.8,1c-0.5,0.5-1,1.2-1.4,2.2c-0.4,1-0.5,2.2-0.5,3.9V47c0,2.5,0.5,4.3,1.4,5.5c1,1.2,2.3,1.7,4.2,1.7
		c1.8,0,3.2-0.6,4.2-1.7c0.9-1.2,1.4-3,1.4-5.5v-4.4h-6.4c-0.5,0-0.8-0.3-0.8-0.8s0.3-0.8,0.8-0.8h7.2c0.5,0,0.8,0.3,0.8,0.8V47
		c0,2.9-0.6,5.1-1.8,6.5C145.5,55.1,143.8,55.9,141.4,55.9z"/>
	<path fill="#FFFFFF" d="M230.2,22.6c0.1,0.1,0.2,0.3,0.2,0.5c0,0.5-0.3,0.8-0.8,0.8h-7.2V55c0,0.2-0.1,0.4-0.2,0.6
		c-0.2,0.1-0.3,0.2-0.5,0.2c-0.5,0-0.8-0.3-0.8-0.8V24h-7.2c-0.2,0-0.4-0.1-0.5-0.2c-0.1-0.1-0.2-0.3-0.2-0.6c0-0.2,0.1-0.4,0.2-0.5
		c0.1-0.1,0.3-0.2,0.5-0.2h16C229.9,22.4,230.1,22.5,230.2,22.6z"/>
	<path fill="#FFFFFF" d="M234.5,39.9v14.4h9.7c0.2,0,0.4,0.1,0.6,0.2c0.1,0.1,0.2,0.3,0.2,0.5c0,0.5-0.3,0.8-0.8,0.8h-10.4
		c-0.5,0-0.8-0.3-0.8-0.8V23.2c0-0.2,0.1-0.4,0.2-0.5c0.1-0.1,0.3-0.2,0.6-0.2h10.4c0.2,0,0.4,0.1,0.6,0.2c0.1,0.1,0.2,0.3,0.2,0.5
		c0,0.5-0.3,0.8-0.8,0.8h-9.7v14.4h9.7c0.5,0,0.8,0.3,0.8,0.8c0,0.2-0.1,0.4-0.2,0.5c-0.1,0.1-0.3,0.2-0.6,0.2H234.5z"/>
	<path fill="#FFFFFF" d="M263.7,54.9c0.1,0.2,0,0.4-0.1,0.6c-0.1,0.2-0.3,0.3-0.5,0.4h-0.2c-0.4,0-0.6-0.2-0.7-0.6l-2.2-9.6h-8.8
		l-2.2,9.6c-0.1,0.2-0.2,0.4-0.4,0.5c-0.2,0.1-0.4,0.2-0.6,0.1c-0.2-0.1-0.4-0.2-0.5-0.4c-0.1-0.2-0.1-0.4-0.1-0.6l7.4-31.9
		c0.1-0.4,0.3-0.6,0.7-0.6c0.4,0,0.7,0.2,0.8,0.6L263.7,54.9z M259.6,44.1l-4.1-17.4l-4,17.4H259.6z"/>
	<path fill="#FFFFFF" d="M272.6,55.9c-0.8,0-1.6-0.1-2.5-0.3c-0.8-0.2-1.6-0.7-2.3-1.3c-0.7-0.7-1.3-1.6-1.7-2.7
		c-0.4-1.1-0.6-2.6-0.6-4.5V31.3c0-1.8,0.2-3.3,0.6-4.5c0.4-1.2,1-2.1,1.7-2.7c0.7-0.6,1.5-1.1,2.3-1.3c0.8-0.2,1.7-0.3,2.5-0.3
		c0.8,0,1.7,0.1,2.5,0.3c0.8,0.2,1.6,0.7,2.3,1.3c0.7,0.6,1.3,1.5,1.7,2.7c0.4,1.2,0.6,2.6,0.6,4.5c0,0.5-0.3,0.8-0.8,0.8
		c-0.5,0-0.8-0.3-0.8-0.8c0-2.5-0.5-4.3-1.4-5.5c-0.9-1.2-2.2-1.7-4.1-1.7c-1.8,0-3.2,0.6-4.1,1.7c-1,1.2-1.4,3.1-1.4,5.5V47
		c0,2.5,0.5,4.3,1.4,5.6c1,1.2,2.3,1.7,4.1,1.7c1.8,0,3.2-0.6,4.1-1.7c1-1.3,1.4-3.1,1.4-5.6c0-0.5,0.3-0.8,0.8-0.8
		c0.5,0,0.8,0.3,0.8,0.8c0,1.9-0.2,3.3-0.6,4.5c-0.4,1.1-1,2-1.7,2.7c-0.7,0.7-1.5,1.1-2.3,1.3C274.2,55.7,273.4,55.9,272.6,55.9z"
		/>
	<path fill="#FFFFFF" d="M295.1,22.5c0.2,0,0.4,0.1,0.6,0.2c0.1,0.1,0.2,0.3,0.2,0.5v31.9c0,0.5-0.3,0.8-0.8,0.8s-0.8-0.3-0.8-0.8
		V40h-10.1v15.1c0,0.5-0.3,0.8-0.8,0.8c-0.5,0-0.8-0.3-0.8-0.8V23.2c0-0.2,0.1-0.4,0.2-0.5c0.1-0.1,0.3-0.2,0.6-0.2
		c0.2,0,0.4,0.1,0.6,0.2c0.1,0.1,0.2,0.3,0.2,0.5v15.2h10.1V23.2c0-0.2,0.1-0.4,0.2-0.5C294.7,22.5,294.9,22.5,295.1,22.5z"/>
	<path fill="#FFFFFF" d="M301.2,39.9v14.4h9.7c0.2,0,0.4,0.1,0.6,0.2c0.1,0.1,0.2,0.3,0.2,0.5c0,0.5-0.3,0.8-0.8,0.8h-10.4
		c-0.5,0-0.8-0.3-0.8-0.8V23.2c0-0.2,0.1-0.4,0.2-0.5c0.1-0.1,0.3-0.2,0.6-0.2h10.4c0.2,0,0.4,0.1,0.6,0.2c0.1,0.1,0.2,0.3,0.2,0.5
		c0,0.5-0.3,0.8-0.8,0.8h-9.7v14.4h9.7c0.5,0,0.8,0.3,0.8,0.8c0,0.2-0.1,0.4-0.2,0.5c-0.1,0.1-0.3,0.2-0.6,0.2H301.2z"/>
	<path fill="#FFFFFF" d="M326.8,40.6c1.5,1.4,2.2,3.4,2.2,5.9V55c0,0.5-0.3,0.8-0.8,0.8c-0.2,0-0.4-0.1-0.5-0.2
		c-0.1-0.1-0.2-0.3-0.2-0.6v-8.5c0-2-0.5-3.6-1.6-4.7c-1.1-1.1-2.6-1.7-4.6-1.7h-4.5V55c0,0.5-0.3,0.8-0.8,0.8
		c-0.2,0-0.4-0.1-0.5-0.2s-0.2-0.3-0.2-0.6V23.2c0-0.2,0.1-0.4,0.2-0.5c0.1-0.1,0.3-0.2,0.5-0.2h5.3c2.6,0,4.6,0.7,5.8,2.1
		c1.3,1.4,1.9,3.7,1.9,6.7c0,3-0.6,5.2-1.8,6.7c-0.5,0.6-1.2,1.1-2,1.5c0.3,0.2,0.6,0.3,0.9,0.5C326.2,40.2,326.5,40.4,326.8,40.6z
		 M316.7,38.6h4.5c2.1,0,3.7-0.6,4.7-1.7c1-1.1,1.4-3,1.4-5.6c0-2.6-0.5-4.4-1.4-5.6c-1-1.1-2.5-1.7-4.7-1.7h-4.5V38.6z"/>
	<path fill="#FFFFFF" d="M338.9,55.8c-2.4,0-4.2-0.8-5.4-2.3c-1.2-1.5-1.8-3.7-1.8-6.5c0-0.5,0.3-0.8,0.8-0.8c0.2,0,0.4,0.1,0.5,0.2
		s0.2,0.3,0.2,0.6c0,1.6,0.2,2.9,0.5,3.9c0.4,1,0.8,1.7,1.4,2.2c0.5,0.5,1.1,0.8,1.8,1c0.7,0.1,1.3,0.2,1.9,0.2
		c1.8,0,3.2-0.6,4.1-1.9c1-1.2,1.5-3,1.5-5.2c0-1.2-0.2-2.2-0.6-3s-0.9-1.5-1.5-2c-0.6-0.5-1.2-0.9-1.8-1.2
		c-0.6-0.3-1.1-0.5-1.5-0.7l-0.8-0.4c-0.5-0.2-1.1-0.5-1.8-0.9s-1.4-0.9-2.1-1.6c-0.7-0.7-1.3-1.5-1.8-2.5c-0.5-1-0.7-2.2-0.7-3.7
		c0-2.5,0.6-4.6,1.7-6.2c1.3-1.8,3.1-2.7,5.4-2.7c2.4,0,4.2,0.8,5.4,2.3c1.2,1.5,1.8,3.7,1.8,6.6c0,0.2-0.1,0.4-0.2,0.5
		c-0.1,0.2-0.3,0.2-0.6,0.2c-0.2,0-0.4-0.1-0.6-0.2c-0.1-0.2-0.2-0.3-0.2-0.5c0-2.5-0.5-4.4-1.4-5.6c-0.9-1.2-2.3-1.7-4.2-1.7
		c-1.8,0-3.1,0.7-4.1,2.1c-1,1.4-1.5,3.1-1.5,5.3c0,1.2,0.2,2.2,0.6,3s0.9,1.5,1.5,2.1c0.6,0.5,1.2,1,1.8,1.3
		c0.6,0.3,1.2,0.6,1.7,0.8l0.8,0.3c0.4,0.2,1,0.5,1.7,0.8c0.7,0.4,1.4,0.9,2.1,1.5c0.7,0.6,1.3,1.5,1.8,2.4c0.5,1,0.8,2.2,0.8,3.6
		c0,1.2-0.2,2.3-0.5,3.4c-0.3,1-0.8,1.9-1.3,2.7C343,55,341.2,55.8,338.9,55.8z"/>
</g>
<g>
	<path fill="#FFFFFF" d="M201,17.4c3.6,3.2,6.4,7.2,8.1,11.7c1.7,4.5,2.2,9.4,1.5,14.1c-1.2,8.3-6,15.8-13,20.3
		c-7.2,4.6-16.4,5.7-24.5,3.1c-7.9-2.6-14.4-8.6-17.6-16.2c-3.4-8-2.9-17.3,1.3-25c4.1-7.5,11.5-12.8,19.8-14.5
		c0.3-0.1,0.5-0.1,0.8-0.1c0.4-0.1,0.7-0.6,0.6-1c-0.1-0.5-0.6-0.6-1-0.6c-8.6,1.4-16.2,6.7-20.8,14c-4.7,7.5-5.8,17-3,25.4
		c2.6,8.1,8.7,14.8,16.4,18.3c8,3.6,17.4,3.6,25.4-0.1c7.7-3.5,13.6-10.4,16.2-18.4c2.9-9.1,1.2-19.4-4.4-27.1
		c-1.3-1.8-2.8-3.4-4.5-4.9C201.4,15.6,200.3,16.7,201,17.4L201,17.4z"/>
	<g>
		<path fill="#FFFFFF" d="M178,32.1C178,32.1,178,32.2,178,32.1C178,32.2,178,32.2,178,32.1c-0.1,0.8,0,1.6,0.7,1.9
			c0.5,0.2,0.9,0,0.9-0.6c0-0.5-0.2-1.1-0.6-1.5C178.7,31.4,178.2,31.6,178,32.1z"/>
		<path fill="#FFFFFF" d="M198.6,32.2c0.7-1.2,2-2.8,1.5-4.2c-0.3-0.7-0.8-1.3-1.6-1.5c-1.1-0.2-2,0.5-2.7,1.2
			c-0.5,0.5-1.1,1.3-1.8,1.4c0,0,0,0,0,0c0,0,0,0,0,0c0,0,0,0,0,0c0,0,0,0,0,0c0,0,0,0,0,0c0,0-0.1-0.1-0.1-0.1c0-0.1,0-0.2,0-0.3
			c0-0.5,0.2-1.1,0.4-1.5c0.2-0.6,0.5-1.1,0.7-1.6c0.4-0.7,0.7-1.4,1.2-2c0.5-0.8-0.8-1.6-1.3-0.8c-0.5,0.8-1,1.6-1.4,2.4
			c-0.5,1.1-1.2,2.5-1.1,3.7c0,0.7,0.5,1.4,1.2,1.6c0.8,0.3,1.7-0.3,2.3-0.8c0.5-0.4,0.9-1,1.4-1.4c0.3-0.3,0.7-0.5,1-0.4
			c0.1,0,0.3,0.3,0.4,0.5c0-0.1,0.1,0.3,0.1,0.2c0,0,0,0.1,0,0.1c0-0.1,0,0.2-0.1,0.2c-0.3,0.9-0.9,1.8-1.4,2.6
			c-0.6,1-1.1,2-1.5,3.1c-0.3,0.8-0.6,1.9-0.1,2.7c0.3,0.5,0.8,0.8,1.4,0.8c0.7,0,1.4-0.5,2-0.9c0.5-0.4,0.9-0.9,1.3-1.3
			c0.2-0.2,0.6-0.5,0.9-0.4c0.2,0,0.3,0.1,0.4,0.3c0.2,0.2,0.2,0.4,0.2,0.5c0,0,0,0.1,0,0.2c0,0.1,0,0.2-0.1,0.3
			c-0.1,0.3-0.2,0.7-0.3,1c-0.8,2-2,3.9-3.4,5.5c-0.6,0.7,0.4,1.8,1.1,1.1c0.6-0.7,1.2-1.5,1.8-2.4c1,2,2.1,4.1,3.1,6.1
			c0.4,0.9,1.7,0.1,1.3-0.8c-1.1-2.3-2.3-4.5-3.4-6.8c0,0,0,0,0-0.1c0.5-0.8,0.9-1.7,1.2-2.6c0.2-0.6,0.4-1.3,0.3-2
			c-0.1-0.8-0.8-1.5-1.5-1.8c-1.1-0.4-2.3,0.5-3,1.3c-0.4,0.4-0.8,0.8-1.2,1.1c-0.2,0.1-0.2,0.1-0.4,0.2c0,0-0.1,0-0.1,0
			c0,0,0,0,0,0c0,0,0,0,0,0c0,0,0,0,0,0c0,0,0,0-0.1-0.1c0,0,0,0,0,0c-0.2-0.3,0.1-1,0.2-1.4C197.5,34.1,198.1,33.2,198.6,32.2z
			 M197.2,36.7C197.2,36.7,197.1,36.7,197.2,36.7C197.1,36.7,197.1,36.7,197.2,36.7C197.1,36.7,197.2,36.7,197.2,36.7z M197,36.6
			C197,36.6,197,36.6,197,36.6C197,36.6,197,36.6,197,36.6L197,36.6z"/>
		<path fill="#FFFFFF" d="M187.2,16c0,0,0,0.1,0,0.1c-0.3,1.3-0.6,2.7-1.3,3.8c-0.4,0.7-0.9,1.3-1.5,1.9c-0.1,0.1-0.1,0.1-0.2,0.2
			c0-1.1-0.2-2.3-0.9-3.3c-0.9-1.4-2.5-2.1-4.2-1.6c-1.6,0.5-2.6,1.8-3,3.3c-0.4,1.7,0,3.4,0.5,5.1c0,0,0,0.1,0,0.1
			c0,0.1-0.1,0.5-0.1,0.4c0,0.1-0.6,0.4-0.7,0.5c-0.6,0.5-1.1,1.3-1.2,2.1c-0.2,1.2-0.4,2.3-0.6,3.5c-0.2,0.9-0.2,1.8,0.1,2.7
			c-0.1-0.1-0.3-0.2-0.5-0.2c-0.4,0-0.8,0.1-1.2,0.2c0-0.1,0-0.2,0-0.3c-0.2-0.9-0.5-1.8-1.2-2.5c-1-0.9-2.5-1.1-3.7-0.4
			c-1.3,0.7-1.8,2.3-2.4,3.5c-0.3,0.6-0.6,1.1-0.8,1.7c-0.3,0.6-0.9,0.7-1.5,0.9c-0.7,0.2-1.4,0.3-2,0.6c-1.3,0.6-1,2.4,0.2,2.9
			c0.1,0,0.2,0.1,0.4,0.1c0,0.3,0.1,0.7,0.3,1c0.4,0.4,0.9,0.5,1.4,0.5c1.1,0,2.3-0.2,3.2-0.9c0.8-0.5,0-1.8-0.8-1.3
			c-0.6,0.4-1.3,0.6-1.9,0.6c-0.2,0-0.4,0-0.6,0c0,0-0.1,0-0.1,0c0,0,0,0,0,0c0.3-0.4,0-0.9-0.4-1.1c-0.3-0.1-0.7-0.2-1-0.4
			c-0.1,0-0.1,0-0.1-0.1c0,0,0.1-0.1,0.2-0.1c0.6-0.2,1.1-0.3,1.7-0.5c0.7-0.2,1.4-0.5,1.9-1.1c0.4-0.5,0.6-1.1,0.9-1.7
			c0.4-0.9,0.9-1.7,1.3-2.6c0.5-0.9,1.5-1.4,2.5-0.9c0.7,0.4,0.9,1.2,1.1,2c0,0.2,0.1,0.3,0.2,0.4c-1,0.5-1.8,1.2-2.4,2.2
			c-0.8,1.4-1.7,2.8-1.9,4.4c-0.2,1.3-0.3,2.5-0.5,3.8c-0.1,0.6-0.2,1.2-0.1,1.8c0.1,0.6,0.3,1,0.5,1.6c0.1,0.6,0.4,1.2,0.6,1.7
			c0.3,0.6,0.5,1.2,0.8,1.8c0.3,0.8,0.5,1.6,0.8,2.4c0.1,0.4,0.2,0.8,0.3,1.2c0.2,0.6,0.1,0.9,0.1,1.4c-0.1,1.3,0.4,2.6,1.7,3
			c0.8,0.3,1.9,0.4,2.6,0c1-0.5,0.9-1.7,0.8-2.6c-0.1-0.9-0.2-1.9-0.5-2.8c-0.3-1.1-0.9-2.1-1.4-3.1c-0.3-0.7-0.4-1.6-0.5-2.3
			c-0.1-0.3-0.1-0.3,0-0.6c0.1,0.2,0.2,0.5,0.2,0.7c0.3,0.9,0.8,1.7,1.5,2.4c0.7,0.6,1.4,1.3,1.9,2.1c0.3,0.5,0.5,1,0.8,1.5
			c0.4,0.6,1,0.9,1.7,1.1c0.9,0.2,2,0.3,2.6-0.5c-0.1,1,0,2,0,3.1c-0.1,1.3-0.3,2.5-0.5,3.8c-0.1,0.4-0.1,0.9-0.2,1.3
			c-0.1,1.1,0.8,2.1,1.8,2.2c0.8,0.1,1.7,0.4,2.4,0c1.1-0.5,1.1-1.5,1-2.5c-0.1-0.9-0.2-1.7-0.2-2.6c0-0.6-0.1-1.3,0-2
			c0.1-0.9,0.6-1.7,0.8-2.6c0.2-1,0.1-1.9,0.1-2.9c0-1,0.1-2,0.2-3c0.1-1,0.7-2.4,1.7-2.9c1,0.4,2,0,2.9-0.6c0.3-0.2,0.7-0.4,1-0.7
			c0,0.1,0,0.1,0,0.2c-0.1,0.7-0.2,1.4-0.3,2.1c0,0.2-0.1,0.5-0.1,0.7c0,0.6,0.2,1.4,0.2,1.9c0.1,1.1-0.4,2.2,0.3,3.2
			c0.6,0.8,1.5,0.9,2.4,1c1,0.1,1.9,0.2,2.5-0.8c0.4-0.7,0.1-1.5,0-2.2c-0.2-0.7-0.3-1.4-0.5-2.1c-0.2-1.1-0.1-2.2,0-3.3
			c0.1-1.5,0.3-2.9,0.4-4.4c0.1-0.6,0.1-1.2-0.3-1.7c-0.5-0.8-1.4-0.8-2.2-0.8c-0.8,0-1.5,0.1-2.3,0.1c-0.3,0-0.5,0-0.8,0
			c0,0-0.1,0-0.1,0c-0.1,0-0.2,0-0.2-0.1c0,0,0,0-0.1,0c0,0,0,0,0,0c-0.4-1.1-0.9-2.4-2.1-2.9c0.2-0.6,0.1-1.2,0-1.8
			c-0.2-1.4-0.5-2.7-0.7-4.1c-0.2-1.1-0.6-2.3-0.4-3.5c0.2-1.3,0.6-2.6,1.3-3.6c0.7-1.2,1.7-2.5,2.1-3.9c0.2-0.6,0.2-1.3,0.2-2
			c0-0.7,0.1-1.5,0.1-2.2c0-0.3,0-0.5-0.1-0.7c0,0,0,0,0,0c0.3-0.2,0.6-0.5,0.7-0.8c0.3,0,0.6,0.1,0.9,0.1c0,0.2-0.1,0.4-0.1,0.6
			c-0.1,0.5,0.2,1,0.7,0.9c1.8-0.1,3.6-0.1,5.4-0.2c0.8,0,1-1.2,0.2-1.5c-0.9-0.3-1.9-0.6-2.8-0.9c0-0.2,0.1-0.3,0.1-0.5
			c0.1-0.4-0.1-0.9-0.5-0.9c-1.3-0.2-2.6-0.4-4-0.7c0,0,0,0,0,0c-0.3-0.6-0.8-1.1-1.2-1.4c-1-0.7-2.2,0-2.8,0.8
			c-0.3,0-0.6-0.1-1-0.1c0.1-0.4,0.2-0.7,0.3-1.1c0.1-0.5-0.2-0.9-0.7-0.9c-2,0-4-0.1-6-0.1c-0.9,0-1,1.2-0.2,1.5
			c1.1,0.4,2.2,0.7,3.2,1.1c-0.1,0.4-0.2,0.7-0.3,1.1c-0.1,0.4,0.1,0.8,0.5,0.9c1.2,0.2,2.3,0.4,3.5,0.6c0.1,0.2,0.1,0.3,0.2,0.5
			c0,0.1,0.1,0.1,0.1,0.2c-0.1,0.1-0.2,0.2-0.2,0.3C187.2,15.8,187.2,15.9,187.2,16z M168.4,41.8C168.4,41.8,168.4,41.7,168.4,41.8
			C168.4,41.8,168.4,41.8,168.4,41.8z M181,55.1c-0.1-0.5-0.5-1-0.7-1.5c-0.4-0.8-0.9-1.6-1.6-2.2c-0.4-0.4-0.9-0.8-1.4-1.1
			c-0.2-0.1,0-0.3,0.1-0.4c0.1-0.2,0.2-0.3,0.3-0.5c0.5,0.1,1.1,0.1,1.6,0.2c0.3,0,0.5,0.1,0.8,0.1c0,0,0,0,0.1,0
			c0.1,0,0.1,0.1,0.1,0.2c0,0,0,0.1,0,0.1c0.2,1.3,0.5,2.6,0.7,3.9C181.1,54.3,181.1,54.7,181,55.1z M187.8,39.2
			c0.9,0.2,1.1,1,1.4,1.8c0.3,0.8,0.9,1.5,1.9,1.4c1.2-0.1,2.4-0.1,3.6-0.2c0.6,0,0.5,0.6,0.5,1c-0.1,0.7-0.1,1.3-0.2,2
			c-0.1,1.3-0.2,2.6-0.3,3.9c-0.1,1.4,0.3,2.8,0.6,4.2c0.1,0.3,0.5,1.3,0.1,1.4c-0.2,0.1-0.6,0-0.8-0.1c-0.3,0-0.7-0.1-1-0.1
			c0,0-0.1,0-0.1,0c-0.1,0-0.2-0.1-0.2-0.2c-0.2-0.1-0.2-0.4-0.1-0.5c0-0.5,0.1-1.1,0.1-1.6c0-0.8-0.3-1.6-0.2-2.4
			c0.2-1.2,0.4-2.4,0.5-3.6c0.1-0.6-0.1-1.2-0.8-1.2c-0.3,0-0.6,0.2-0.8,0.4c-0.6,0.4-1.3,0.8-1.9,1.2c-0.1,0.1-0.2,0.1-0.3,0.2
			c0,0,0,0,0,0c0,0,0,0-0.1,0c-0.3,0.1-0.5,0.2-0.8,0.2c-0.3,0.1-0.5-0.2-0.8-0.2c-0.5,0-1,0.4-1.3,0.6c-0.5,0.4-0.9,0.8-1.2,1.4
			c-0.4,0.8-0.7,1.6-0.8,2.5c0,0.6-0.1,1.3-0.1,1.9c-0.1,0.9,0,1.8,0,2.6c0,0.9-0.3,1.7-0.6,2.6c-0.3,0.9-0.3,1.8-0.2,2.6
			c0,0.8,0.1,1.7,0.2,2.5c0,0.4,0.4,1.7-0.1,1.8c-0.1,0-0.1,0-0.2,0c-0.2,0-0.3,0-0.5-0.1c-0.3,0-0.6-0.1-1-0.2
			c-0.5-0.2-0.3-0.9-0.3-1.3c0.1-0.7,0.2-1.5,0.3-2.2c0.1-0.6,0.2-1.2,0.2-1.8c0.1-0.8,0-1.7,0-2.5c0-0.9,0.2-1.7,0.3-2.6
			c0-0.4-0.1-0.9-0.1-1.3c-0.2-1-0.4-2.1-0.5-3.1c-0.1-0.3-0.1-0.6-0.2-1c-0.1-0.7-0.8-1.3-1.6-1.3c-0.9-0.1-1.9-0.1-2.8-0.4
			c-0.5-0.1-1,0.3-0.9,0.7c0,0.4-0.2,0.7-0.4,1c-0.3,0.5-0.3,1.1,0,1.6c0.1,0.3,0.4,0.5,0.7,0.6c0.3,0.2,0.6,0.5,0.9,0.7
			c0.6,0.5,1.1,1.1,1.4,1.8c0.2,0.3,0.3,0.7,0.5,1c0,0.1,0.1,0.2,0.1,0.3c0.1,0.2,0,0.1-0.1,0.1c-0.3,0-0.7-0.1-1-0.2
			c-0.6-0.3-0.8-0.8-1-1.3c-0.5-1-1.2-1.8-2-2.5c-0.6-0.6-1.2-1.2-1.5-2c-0.2-0.6-0.5-1.2-0.6-1.9c-0.1-0.6-0.8-1-1.3-0.5
			c-0.3,0.3-0.6,0.5-0.9,0.8c-0.4,0.5-0.6,1.2-0.5,1.8c0.1,0.5,0.2,1.1,0.2,1.6c0.2,1.2,0.8,2.1,1.3,3.2c0.4,1,0.6,2,0.7,3
			c0,0.4,0.4,1.7-0.2,1.8c-0.3,0-0.7-0.1-1-0.1c-0.3,0-0.7-0.3-0.8-0.7c-0.1-0.5,0-1,0-1.4c0-0.5-0.1-1.1-0.3-1.6
			c-0.3-1-0.5-2-0.9-3c-0.3-0.6-0.6-1.3-0.8-1.9c-0.3-0.8-0.6-1.5-0.8-2.3c-0.1-0.2-0.2-0.5-0.3-0.7c-0.1-0.3-0.1-0.5-0.1-0.8
			c0-0.2,0-0.5,0.1-0.7c0.1-0.7,0.2-1.4,0.2-2c0.1-0.7,0.2-1.3,0.2-2c0,0,0-0.1,0-0.1c0-0.1,0.1-0.3,0.1-0.4
			c0.1-0.4,0.3-0.9,0.5-1.3c0.7-1.2,1.2-2.8,2.5-3.5c0.6-0.3,1.3-0.6,2.1-0.6c0.5,0,0.7-0.4,0.7-0.8c0.2,0.6,0.6,1.1,1.1,1.5
			c0.6,0.4,1.3,0.6,1.9,0.8c0.2,0.1,0.5,0.2,0.7,0.2c0.1,0,0.1,0,0.2,0c0.2,0.6,0.6,1.1,1.2,1.5c0.6,0.4,1.2,0.9,1.9,1.1
			c0.8,0.3,1.6,0.2,2.4,0.1c0.7-0.1,1.4-0.2,2.1-0.3C186.5,40,187.2,39.7,187.8,39.2z M188.8,12.9c0.2-0.3,0.6-0.9,1-0.5
			c0.3,0.3,0.6,0.8,0.8,1.1c0.3,0.4,0.2,1.1-0.2,1.4c-0.1,0.1-0.2,0.2-0.3,0.3c0,0-0.1,0-0.1-0.1c-0.4-0.1-0.8-0.2-1.3-0.2
			c0-0.1,0-0.3-0.1-0.4C188.4,14,188.5,13.4,188.8,12.9z M188.6,16.4c0.1,0,0.2,0,0.3,0c0.3,0,0.5,0.1,0.8,0.2
			c0.1,0.1,0.1,0,0.1,0.1c0,0.1,0,0.2,0,0.3c0,0.7-0.1,1.5-0.1,2.2c0,0.7-0.1,1.3-0.3,2c-0.2,0.5-0.6,1-0.8,1.5
			c-0.7,1.2-1.6,2.5-1.9,3.9c-0.2,0.7-0.4,1.4-0.5,2.1c-0.1,0.6,0,1.2,0.1,1.8c0.2,1.4,0.5,2.8,0.7,4.2c0.2,1,0.8,2.6-0.1,3.4
			c-0.5,0.5-1.3,0.6-2,0.7s-1.3,0.2-2,0.3c0,0,0,0-0.1,0c0.2,0-0.2,0-0.2,0c-0.3,0-0.5-0.1-0.8-0.1c-0.3-0.1-0.6-0.3-0.8-0.5
			c-0.6-0.4-1.5-0.8-1.3-1.7c0.2-0.8-0.9-1.3-1.4-0.6c0,0,0,0,0,0c0,0,0,0,0,0c-0.1,0-0.2-0.1-0.3-0.1c-0.3-0.1-0.5-0.2-0.8-0.3
			c-0.6-0.2-1-0.3-1.3-0.9c-0.6-0.9-0.4-2.1-0.2-3.1c0.2-1,0.4-2,0.5-3c0.1-0.5,0.4-1.1,0.8-1.4c0.5-0.4,1-0.7,1.1-1.4
			c0.1-0.2,0.2-0.4,0.2-0.6c0-0.3-0.1-0.5-0.2-0.8c-0.3-0.8-0.5-1.5-0.5-2.4c-0.1-1.3,0.3-2.8,1.4-3.6c1.1-0.7,2.2-0.5,3,0.5
			c1.1,1.4,0.9,3.2,0.4,4.8c-0.2,0.7,0.7,1.3,1.2,0.7c0.6-0.7,1.3-1.2,1.9-1.9c0.7-0.7,1.2-1.5,1.7-2.2
			C188,19.5,188.2,17.9,188.6,16.4z"/>
		<path fill="#FFFFFF" d="M180.2,19.5c-1.5-0.1-2.2,1.7-2.2,2.9c0,0,0,0.1,0,0.1c0,0,0,0.1,0,0.1c0.1,1.3,0.7,2.9,2.2,2.9
			c1.5,0.1,2.2-1.8,2.2-3C182.5,21.1,181.7,19.5,180.2,19.5z M180.2,24.2c-0.8,0-1-1.2-1-1.8c0-0.6,0.2-1.7,1-1.8c0.8,0,1,1.2,1,1.8
			C181.2,23.1,181,24.2,180.2,24.2z"/>
	</g>
</g>
</svg>
