<?xml version="1.0" encoding="utf-8"?>
<!-- Generator: Adobe Illustrator 19.0.1, SVG Export Plug-In . SVG Version: 6.00 Build 0)  -->
<!DOCTYPE svg PUBLIC "-//W3C//DTD SVG 1.1//EN" "http://www.w3.org/Graphics/SVG/1.1/DTD/svg11.dtd">
<svg version="1.1" xmlns="http://www.w3.org/2000/svg" xmlns:xlink="http://www.w3.org/1999/xlink" x="0px" y="0px"
	 viewBox="0 0 31 31" enable-background="new 0 0 31 31" xml:space="preserve">
<g id="レイヤー_3">
	<rect x="0" y="0" fill="#0E0E38" width="31" height="31"/>
</g>
<g id="レイヤー_1">
	<path fill="#FFFFFF" d="M22.7,11.8c0,0.2,0,0.3,0,0.5c0,4.8-3.6,10.3-10.3,10.3c-2,0-3.9-0.6-5.6-1.6C7.2,21,7.5,21,7.8,21
		c1.7,0,3.3-0.6,4.5-1.6c-1.6,0-2.9-1.1-3.4-2.5C9.1,17,9.3,17,9.6,17c0.3,0,0.7,0,1-0.1c-1.7-0.3-2.9-1.8-2.9-3.6c0,0,0,0,0,0
		c0.5,0.3,1,0.4,1.6,0.5c-1-0.7-1.6-1.8-1.6-3c0-0.7,0.2-1.3,0.5-1.8c1.8,2.2,4.5,3.6,7.5,3.8c-0.1-0.3-0.1-0.5-0.1-0.8
		c0-2,1.6-3.6,3.6-3.6c1,0,2,0.4,2.6,1.1c0.8-0.2,1.6-0.5,2.3-0.9c-0.3,0.8-0.8,1.6-1.6,2c0.7-0.1,1.4-0.3,2.1-0.6
		C24.1,10.7,23.4,11.3,22.7,11.8z"/>
</g>
<g id="レイヤー_2" display="none">
	<path display="inline" fill="#FFFFFF" d="M19.3,15.4h-2.5c0,4,0,8.9,0,8.9h-3.7c0,0,0-4.8,0-8.9h-1.8v-3.1h1.8v-2
		c0-1.5,0.7-3.7,3.7-3.7l2.7,0v3c0,0-1.7,0-2,0c-0.3,0-0.8,0.2-0.8,0.9v1.8h2.8L19.3,15.4z"/>
</g>
</svg>
